<svg width="0" height="0" class="hidden"><symbol xmlns="http://www.w3.org/2000/svg" viewBox="0 0 492.004 492.004" id="right-arrow"><path d="M382.678 226.804L163.73 7.86C158.666 2.792 151.906 0 144.698 0s-13.968 2.792-19.032 7.86l-16.124 16.12c-10.492 10.504-10.492 27.576 0 38.064L293.398 245.9l-184.06 184.06c-5.064 5.068-7.86 11.824-7.86 19.028 0 7.212 2.796 13.968 7.86 19.04l16.124 16.116c5.068 5.068 11.824 7.86 19.032 7.86s13.968-2.792 19.032-7.86L382.678 265c5.076-5.084 7.864-11.872 7.848-19.088.016-7.244-2.772-14.028-7.848-19.108z"/></symbol><symbol xmlns="http://www.w3.org/2000/svg" viewBox="0 0 512 512" id="facebook"><path d="M75 512h167V330h-60v-60h60v-75c0-41.355 33.645-75 75-75h75v60h-60c-16.543 0-30 13.457-30 30v60h87.293l-10 60H302v182h135c41.355 0 75-33.645 75-75V75c0-41.355-33.645-75-75-75H75C33.645 0 0 33.645 0 75v362c0 41.355 33.645 75 75 75zM30 75c0-24.813 20.188-45 45-45h362c24.813 0 45 20.188 45 45v362c0 24.813-20.188 45-45 45H332V360h72.707l20-120H332v-30h90V90H317c-57.898 0-105 47.102-105 105v45h-60v120h60v122H75c-24.813 0-45-20.188-45-45zm0 0"/></symbol><symbol xmlns="http://www.w3.org/2000/svg" viewBox="0 0 512.001 512.001" id="instagram"><path d="M373.406 0H138.594C62.172 0 0 62.172 0 138.594V373.41C0 449.828 62.172 512 138.594 512H373.41C449.828 512 512 449.828 512 373.41V138.594C512 62.172 449.828 0 373.406 0zm108.578 373.41c0 59.867-48.707 108.574-108.578 108.574H138.594c-59.871 0-108.578-48.707-108.578-108.574V138.594c0-59.871 48.707-108.578 108.578-108.578H373.41c59.867 0 108.574 48.707 108.574 108.578zm0 0"/><path d="M256 116.004c-77.195 0-139.996 62.8-139.996 139.996S178.804 395.996 256 395.996 395.996 333.196 395.996 256 333.196 116.004 256 116.004zm0 249.976c-60.64 0-109.98-49.335-109.98-109.98 0-60.64 49.34-109.98 109.98-109.98 60.645 0 109.98 49.34 109.98 109.98 0 60.645-49.335 109.98-109.98 109.98zM399.344 66.285c-22.813 0-41.367 18.559-41.367 41.367 0 22.813 18.554 41.371 41.367 41.371s41.37-18.558 41.37-41.37-18.558-41.368-41.37-41.368zm0 52.719c-6.258 0-11.352-5.094-11.352-11.352 0-6.261 5.094-11.351 11.352-11.351 6.261 0 11.355 5.09 11.355 11.351 0 6.258-5.094 11.352-11.355 11.352zm0 0"/></symbol><symbol xmlns="http://www.w3.org/2000/svg" viewBox="0 0 496 496" id="pinterest"><path d="M365.2 0H130.752C57.44 0 0 57.456 0 130.784v234.448C0 438.56 57.44 496 130.752 496H365.2c73.344 0 130.8-57.44 130.8-130.784V130.784C496 57.456 438.544 0 365.2 0zM464 365.216c0 56.304-42.464 98.768-98.8 98.768H130.752C74.448 463.984 32 421.536 32 365.216V130.784C32 74.464 74.448 32 130.752 32H365.2c56.336 0 98.8 42.464 98.8 98.784v234.432z"/><path d="M255.072 101.472c-82.64 0-124.304 57.344-124.304 105.152 0 28.96 11.328 54.704 35.6 64.32 1.024.4 2.032.608 2.976.608 2.72 0 4.912-1.664 5.744-4.832.816-2.944 2.704-10.384 3.568-13.52 1.152-4.224.72-5.68-2.496-9.36-7.008-8-11.504-18.352-11.504-32.992 0-42.56 32.928-80.624 85.664-80.624 46.704 0 72.368 27.616 72.368 64.496 0 48.528-22.192 89.504-55.136 89.504-18.224 0-31.824-14.576-27.456-32.432 5.232-21.328 15.376-44.336 15.376-59.712 0-13.792-7.664-25.264-23.472-25.264-18.624 0-33.568 18.608-33.568 43.568 0 15.872 5.552 26.64 5.552 26.64s-19.008 78.048-22.352 91.728c-6.656 27.216-1.008 60.592-.528 63.952.16 1.2 1.184 1.856 2.24 1.856.704 0 1.424-.288 1.888-.896 1.728-2.144 23.872-28.624 31.408-55.088 2.16-7.488 12.24-46.256 12.24-46.256 6.048 11.152 23.712 20.96 42.512 20.96 55.904 0 93.84-49.296 93.84-115.328-.016-49.968-43.712-96.48-110.16-96.48z"/></symbol><symbol xmlns="http://www.w3.org/2000/svg" viewBox="0 0 384 384" id="call"><path d="M353.188 252.052c-23.51 0-46.594-3.677-68.469-10.906-10.719-3.656-23.896-.302-30.438 6.417l-43.177 32.594c-50.073-26.729-80.917-57.563-107.281-107.26l31.635-42.052c8.219-8.208 11.167-20.198 7.635-31.448-7.26-21.99-10.948-45.063-10.948-68.583C132.146 13.823 118.323 0 101.333 0h-70.52C13.823 0 0 13.823 0 30.813 0 225.563 158.438 384 353.188 384c16.99 0 30.813-13.823 30.813-30.813v-70.323c-.001-16.989-13.824-30.812-30.813-30.812z"/></symbol><symbol xmlns="http://www.w3.org/2000/svg" viewBox="0 0 512 512" id="email"><path d="M467 61H45C20.218 61 0 81.196 0 106v300c0 24.72 20.128 45 45 45h422c24.72 0 45-20.128 45-45V106c0-24.72-20.128-45-45-45zm-6.214 30L256.954 294.833 51.359 91h409.427zM30 399.788V112.069l144.479 143.24L30 399.788zM51.213 421l144.57-144.57 50.657 50.222c5.864 5.814 15.327 5.795 21.167-.046L317 277.213 460.787 421H51.213zM482 399.787L338.213 256 482 112.212v287.575z"/></symbol><symbol xmlns="http://www.w3.org/2000/svg" viewBox="0 0 443.294 443.294" id="clock"><path d="M221.647 0C99.433 0 0 99.433 0 221.647s99.433 221.647 221.647 221.647 221.647-99.433 221.647-221.647S343.861 0 221.647 0zm0 415.588c-106.941 0-193.941-87-193.941-193.941s87-193.941 193.941-193.941 193.941 87 193.941 193.941-87 193.941-193.941 193.941z"/><path d="M235.5 83.118h-27.706v144.265l87.176 87.176 19.589-19.589-79.059-79.059z"/></symbol></svg>